# AST/ASF file generated using VICON BodyLanguage
# -----------------------------------------------
:version 1.10
:name VICON
:units
  mass 1.0
  length 0.45
  angle deg
:documentation
   .ast/.asf automatically generated from VICON data using
   VICON BodyBuilder and BodyLanguage model FoxedUp or BRILLIANT.MOD
:root
   order TX TY TZ RX RY RZ
   axis XYZ
   position 0 0 0  
   orientation 0 0 0 
:bonedata
  begin
     id 1 
     name lhipjoint
     direction 0.623529 -0.717805 0.309788 
     length 2.23224 
     axis 0 0 0  XYZ
  end
  begin
     id 2 
     name lfemur
     direction 0.34202 -0.939693 0  
     length 7.11402  
     axis 0 0 20  XYZ
    dof rx ry rz
    limits (-160.0 20.0)
           (-70.0 70.0)
           (-60.0 70.0)
  end
  begin
     id 3 
     name ltibia
     direction 0.34202 -0.939693 0   
     length 6.78496   
     axis 0 0 20   XYZ
    dof rx
    limits (-10.0 170.0)
  end
  begin
     id 4 
     name lfoot
     direction 0.125078 -0.343648 0.930732   
     length 1.84054   
     axis -90 7.62852e-016 20   XYZ
    dof rx rz
    limits (-45.0 90.0)
           (-70.0 20.0)
  end
  begin
     id 5 
     name ltoes
     direction 1.53565e-011 -4.21893e-011 1   
     length 0.916474   
     axis -90 7.62852e-016 20   XYZ
    dof rx
    limits (-90.0 20.0)
  end
  begin
     id 6 
     name rhipjoint
     direction -0.564688 -0.757748 0.327026   
     length 2.11457  
     axis 0 0 0  XYZ 
  end
  begin
     id 7 
     name rfemur
     direction -0.34202 -0.939693 0   
     length 7.14609   
     axis 0 0 -20   XYZ
    dof rx ry rz
    limits (-160.0 20.0)
           (-70.0 70.0)
           (-70.0 60.0)
  end
  begin
     id 8 
     name rtibia
     direction -0.34202 -0.939693 0   
     length 6.78101   
     axis 0 0 -20   XYZ
    dof rx
    limits (-10.0 170.0)
 end
 begin
     id 9 
     name rfoot
     direction -0.0992671 -0.272734 0.956955   
     length 1.96168  
     axis -90 -7.62852e-016 -20   XYZ
    dof rx rz
    limits (-45.0 90.0)
           (-20.0 70.0)
  end
  begin
     id 10 
     name rtoes
     direction -1.5356e-011 -4.21891e-011 1   
     length 0.982933   
     axis -90 -7.62852e-016 -20   XYZ
    dof rx
    limits (-90.0 20.0)
  end
  begin
     id 11 
     name lowerback
     direction -0.00596953 0.998668 0.0512524   
     length 1.87557   
     axis 0 0 0   XYZ
    dof rx ry rz
    limits (-20.0 45.0)
           (-30.0 30.0)
           (-30.0 30.0)
  end
  begin
     id 12 
     name upperback
     direction 0.00584879 0.999652 0.0257308   
     length 1.87883   
     axis 0 0 0   XYZ
    dof rx ry rz
    limits (-20.0 45.0)
           (-30.0 30.0)
           (-30.0 30.0)
  end
  begin
     id 13 
     name thorax
     direction 0.010104 0.999947 0.00178881   
     length 1.87779   
     axis 0 0 0   XYZ
    dof rx ry rz
    limits (-20.0 45.0)
           (-30.0 30.0)
           (-30.0 30.0)
  end
  begin
     id 14 
     name lowerneck
     direction 0.0120771 0.995934 -0.0892773   
     length 1.40897   
     axis 0 0 0   XYZ
    dof rx ry rz
    limits (-20.0 45.0)
           (-30.0 30.0)
           (-30.0 30.0)
  end
  begin
     id 15 
     name upperneck
     direction -0.030568 0.999465 -0.0116366   
     length 1.38661   
     axis 0 0 0   XYZ
    dof rx ry rz
    limits (-20.0 45.0)
           (-30.0 30.0)
           (-30.0 30.0)
  end
  begin
     id 16
     name head
     direction -0.0170715 0.999854 -0.00104426  
     length 1.47052  
     axis 0 0 0   XYZ
    dof rx ry rz
    limits (-20.0 45.0)
           (-30.0 30.0)
           (-30.0 30.0)
  end
  begin
     id 17 
     name lclavicle
     direction 0.977763 0.206143 0.038532  
     length 3.02424  
     axis 0 0 0   XYZ
    dof ry rz
    limits (-20.0 10.0)
           (0.0 20.0)
  end
  begin
     id 18 
     name lhumerus
     direction 1 -4.48965e-011 -2.62654e-027   
     length 4.68382   
     axis 180 -30 -90   XYZ
    dof rx ry rz
    limits (-60.0 90.0)
           (-90.0 90.0)
           (-90.0 90.0)
  end
  begin
     id 19
     name lradius
     direction 1 -4.48973e-011 -1.54954e-027   
     length 2.98124   
     axis 180 -30 -90   XYZ
    dof rx
    limits (-10.0 170.0)
  end
  begin
     id 20
     name lwrist
     direction 1 -4.48959e-011 7.20928e-028   
     length 1.49062   
     axis -5.52449e-016 90 90   XYZ
    dof ry
    limits (-180.0 0.0)
 end
  begin
     id 21 
     name lhand
     direction 1 -4.48971e-011 1.44186e-027   
     length 0.707595   
     axis -9.20027e-016 90 90   XYZ
    dof rx rz
    limits (-90.0 90.0)
           (-45.0 45.0)
  end
  begin
     id 22 
     name lfingers
     direction 1 -4.48985e-011 2.88371e-027   
     length 0.570481   
     axis -1.84005e-015 90 90   XYZ
    dof rx
    limits (0.0 90.0)
  end
  begin
     id 23
     name lthumb
     direction 0.707107 -6.34929e-011 0.707107   
     length 0.819101   
     axis -90 45 2.85299e-015   XYZ
    dof rx rz
    limits (-45.0 45.0)
           (-45.0 45.0)
  end
  begin
     id 24 
     name rclavicle
     direction -0.958661 0.284411 -0.00895327   
     length 3.11921  
     axis 0 0 0   XYZ 
    dof ry rz
    limits (-10.0 20.0)
           (-20.0 0.0)
  end
  begin
     id 25 
     name rhumerus
     direction -1 -4.48963e-011 -4.22193e-027  
     length 4.75876   
     axis 180 30 90   XYZ
    dof rx ry rz
    limits (-90.0 60.0)
           (-90.0 90.0)
           (-90.0 90.0)
  end
  begin
     id 26 
     name rradius
     direction -1 -4.48968e-011 -1.07616e-027   
     length 2.93293   
     axis 180 30 90   XYZ
    dof rx
    limits (-10.0 170.0)
  end
  begin
     id 27 
     name rwrist
     direction -1 -4.48965e-011 7.20928e-028   
     length 1.46647   
     axis -5.52449e-016 -90 -90   XYZ
    dof ry
    limits (-180.0 0.0)
  end
  begin
     id 28
     name rhand
     direction -1 -4.48971e-011 1.44186e-027   
     length 0.831748   
     axis -9.20027e-016 -90 -90   XYZ
    dof rx rz
    limits (-90.0 90.0)
           (-45.0 45.0)
  end
  begin
     id 29
     name rfingers
     direction -1 -4.48961e-011 2.88371e-027   
     length 0.670577   
     axis -1.84005e-015 -90 -90   XYZ
    dof rx
    limits (0.0 90.0)
  end
  begin
     id 30
     name rthumb
     direction -0.707107 -6.34929e-011 0.707107   
     length 0.962818   
     axis -90 -45 -2.85299e-015   XYZ
    dof rx rz
    limits (-45.0 45.0)
           (-45.0 45.0)
  end
:hierarchy
  begin
    root lhipjoint rhipjoint lowerback
    lhipjoint lfemur
    lfemur ltibia
    ltibia lfoot
    lfoot ltoes
    rhipjoint rfemur
    rfemur rtibia
    rtibia rfoot
    rfoot rtoes
    lowerback upperback
    upperback thorax
    thorax lowerneck lclavicle rclavicle
    lowerneck upperneck
    upperneck head
    lclavicle lhumerus
    lhumerus lradius
    lradius lwrist
    lwrist lhand lthumb
    lhand lfingers
    rclavicle rhumerus
    rhumerus rradius
    rradius rwrist
    rwrist rhand rthumb
    rhand rfingers
  end

#!OML:ASF E:\id_vita\Project 1\Capture day 1\Session 1\Female.ASF
:FULLY-SPECIFIED
:DEGREES
887
root 4.47669 27.4878 -0.06637 68.2913 91.4488 44.9357
lowerback -7.15545 0.682075 -5.04341
upperback -1.00641 1.32703 -0.00504922
thorax 2.85751 0.620736 2.95393
lowerneck -4.95057 1.50244 -1.67652
upperneck 19.6654 2.02444 3.74527
head 6.73449 1.326 1.64987
rclavicle 1.28216e-014 -2.42517e-014
rhumerus 48.0642 12.7513 -18.8245
rradius 51.3387
rwrist -2.99367
rhand -25.8512 4.82849
rfingers 7.12502
rthumb 0.689413 -25.1501
lclavicle 1.28216e-014 -2.42517e-014
lhumerus 60.6957 -12.4088 16.9447
lradius 39.072
lwrist -4.05153
lhand -25.7346 30.3505
lfingers 7.12502
lthumb 0.802038 60.3288
rfemur -52.1012 2.61159 18.2444
rtibia 50.7922
rfoot 6.90355 15.171
rtoes -21.1195
lfemur -37.5997 -15.9073 -13.5354
ltibia 25.3229
lfoot -14.3823 20.569
ltoes 16.0642
888
root 4.4731 27.483 -0.0686486 77.0379 91.2838 53.9307
lowerback -7.20973 0.754448 -5.1094
upperback -0.999838 1.43149 0.00793451
thorax 2.88355 0.671157 3.01527
lowerneck -4.30429 1.67475 -0.683177
upperneck 19.2123 2.30357 2.87484
head 6.494 1.45436 1.2077
rclavicle -1.45113e-014 -1.23246e-014
rhumerus 47.832 12.9874 -18.3074
rradius 51.926
rwrist -3.2456
rhand -26.0365 4.76253
rfingers 7.12502
rthumb 0.510497 -25.2166
lclavicle -1.45113e-014 -1.23246e-014
lhumerus 60.5412 -12.5446 16.9024
lradius 39.2861
lwrist -3.91584
lhand -26.124 31.081
lfingers 7.12502
lthumb 0.425973 61.0604
rfemur -51.9134 2.67991 18.2559
rtibia 50.8557
rfoot 6.86201 15.2471
rtoes -20.7722
lfemur -37.3778 -15.7899 -13.6821
ltibia 25.5047
lfoot -14.3942 20.6403
ltoes 16.3217
889
root 4.46966 27.4775 -0.0728913 85.8812 91.1906 63.0295
lowerback -7.16695 0.787126 -5.06265
upperback -1.03979 1.46822 0.00433554
thorax 2.81618 0.692707 2.98703
lowerneck -4.25966 1.74212 -0.924908
upperneck 19.3261 2.39728 3.04747
head 6.51479 1.49896 1.31071
rclavicle 4.47266e-015 5.56597e-015
rhumerus 47.5512 13.2858 -17.9661
rradius 52.4953
rwrist -3.26858
rhand -26.3002 4.64848
rfingers 7.12502
rthumb 0.255798 -25.3311
lclavicle 4.47266e-015 5.56597e-015
lhumerus 60.1932 -12.7566 16.6956
lradius 39.743
lwrist -3.48046
lhand -26.1618 31.4202
lfingers 7.12502
lthumb 0.389437 61.3996
rfemur -51.7169 2.72849 18.2769
rtibia 50.9193
rfoot 6.84289 15.2469
rtoes -20.3928
lfemur -37.1808 -15.6462 -13.8453
ltibia 25.6779
lfoot -14.1828 20.7276
ltoes 15.2641
890
root 4.46699 27.4729 -0.075352 100.084 91.1651 77.4758
lowerback -7.09777 0.843528 -4.97374
upperback -1.15349 1.53268 -0.0477683
thorax 2.65777 0.733007 2.88549
lowerneck -4.522 1.80875 -0.753846
upperneck 19.9012 2.52281 2.84015
head 6.74861 1.56562 1.2378
rclavicle 1.18277e-014 1.03368e-014
rhumerus 47.2617 13.6473 -17.8928
rradius 52.9317
rwrist -3.16735
rhand -26.1923 4.69778
rfingers 7.12502
rthumb 0.360028 -25.2817
lclavicle 1.18277e-014 1.03368e-014
lhumerus 59.7964 -13.0665 16.241
lradius 40.2314
lwrist -3.00678
lhand -26.1266 31.2216
lfingers 7.12502
lthumb 0.423443 61.2009
rfemur -51.514 2.90255 18.3155
rtibia 50.9567
rfoot 6.89554 15.4033
rtoes -20.0045
lfemur -36.9751 -15.5665 -13.9027
ltibia 25.8216
lfoot -13.8155 20.9657
ltoes 13.6354
891
root 4.46416 27.4719 -0.0770633 112.02 91.2456 89.7248
lowerback -6.9449 0.909062 -4.96655
upperback -1.24542 1.60893 -0.0492539
thorax 2.47087 0.778125 2.88126
lowerneck -4.72637 1.86166 -0.805981
upperneck 20.3532 2.57057 3.0815
head 6.92507 1.61356 1.33857
rclavicle -7.7526e-015 -6.36111e-015
rhumerus 46.7698 13.9931 -17.7659
rradius 53.5338
rwrist -3.1406
rhand -25.915 4.84621
rfingers 7.12502
rthumb 0.627871 -25.1326
lclavicle -7.7526e-015 -6.36111e-015
lhumerus 59.3972 -13.3681 15.9566
lradius 40.7152
lwrist -2.79295
lhand -26.5551 31.4821
lfingers 7.12502
lthumb 0.00958501 61.4618
rfemur -51.213 3.06067 18.4147
rtibia 50.9685
rfoot 6.8479 15.5215
rtoes -20.0262
lfemur -36.6602 -15.6067 -13.8756
ltibia 25.9579
lfoot -13.8784 21.2155
ltoes 13.6465
892
root 4.46182 27.4719 -0.0801984 116.265 91.3944 94.3157
lowerback -7.04645 0.920256 -4.89065
upperback -1.11625 1.62382 -0.00384778
thorax 2.66088 0.777575 2.89155
lowerneck -4.42735 1.90538 -0.551718
upperneck 20.0163 2.64503 2.81433
head 6.77025 1.64026 1.20486
rclavicle 8.34896e-015 -9.54166e-015
rhumerus 46.649 14.0658 -17.5771
rradius 54.0401
rwrist -3.18265
rhand -25.6502 4.57343
rfingers 7.12502
rthumb 0.883637 -25.4045
lclavicle 8.34896e-015 -9.54166e-015
lhumerus 58.9437 -13.33 16.0136
lradius 41.2628
lwrist -2.9139
lhand -26.6546 31.3368
lfingers 7.12502
lthumb -0.0864738 61.3165
rfemur -50.8505 3.10692 18.6
rtibia 50.9699
rfoot 6.85653 15.3981
rtoes -19.862
lfemur -36.3386 -15.5995 -13.8412
ltibia 26.0922
lfoot -14.0483 21.3145
ltoes 14.3898
893
root 4.46044 27.471 -0.0827885 122.246 91.5095 100.538
lowerback -7.05634 1.02246 -4.8064
upperback -1.17234 1.75492 -0.046621
thorax 2.60105 0.846784 2.81067
lowerneck -4.17477 1.86419 -0.60828
upperneck 19.9794 2.5513 3.09874
head 6.71018 1.61626 1.29502
rclavicle -1.56046e-014 5.96354e-015
rhumerus 46.5453 14.2711 -17.4417
rradius 54.3151
rwrist -3.30306
rhand -25.4296 3.92993
rfingers 7.12502
rthumb 1.09667 -26.047
lclavicle -1.56046e-014 5.96354e-015
lhumerus 58.4812 -13.4731 16.3916
lradius 42.0819
lwrist -3.20755
lhand -26.0844 30.5579
lfingers 7.12502
lthumb 0.46424 60.5372
rfemur -50.6005 3.19826 18.6918
rtibia 50.9741
rfoot 6.9535 15.3024
rtoes -19.6178
lfemur -36.1076 -15.5086 -13.8742
ltibia 26.2036
lfoot -13.9881 21.3268
ltoes 14.2887
894
root 4.45906 27.4677 -0.0857629 131.321 91.5034 109.834
lowerback -6.79376 1.18794 -4.79774
upperback -1.42918 1.96173 -0.207672
thorax 2.17759 0.967685 2.64426
lowerneck -3.95818 1.75129 -0.46592
upperneck 20.2594 2.37328 3.26304
head 6.76538 1.5648 1.31427
rclavicle 9.93923e-017 -4.77083e-015
rhumerus 45.844 14.7482 -17.2209
rradius 54.817
rwrist -3.50104
rhand -25.3454 3.60662
rfingers 7.12502
rthumb 1.17797 -26.3699
lclavicle 9.93923e-017 -4.77083e-015
lhumerus 58.1324 -14.0124 16.3255
lradius 42.9391
lwrist -3.27029
lhand -26.0385 30.6562
lfingers 7.12502
lthumb 0.508533 60.6354
rfemur -50.3885 3.26332 18.5994
rtibia 50.9962
rfoot 6.886 15.4482
rtoes -19.6713
lfemur -35.8814 -15.4639 -14.0785
ltibia 26.3233
lfoot -14.0525 21.3498
ltoes 13.9314
895
root 4.45815 27.4644 -0.0900659 140.926 91.51 119.651
lowerback -7.21626 1.20314 -5.05313
upperback -1.17899 2.0267 -0.118513
thorax 2.65485 0.979461 2.9028
lowerneck -3.94206 1.76797 -0.383991
upperneck 20.0906 2.45315 2.85703
head 6.71395 1.57137 1.17229
rclavicle 2.93207e-014 -1.90833e-014
rhumerus 45.5245 14.6888 -16.5402
rradius 55.595
rwrist -3.82103
rhand -25.2388 3.59457
rfingers 7.12502
rthumb 1.28093 -26.3813
lclavicle 2.93207e-014 -1.90833e-014
lhumerus 58.0894 -13.992 15.5822
lradius 43.1826
lwrist -2.40886
lhand -26.5108 31.3699
lfingers 7.12502
lthumb 0.0523754 61.3497
rfemur -50.2272 3.25372 18.496
rtibia 51.0344
rfoot 6.78596 15.7176
rtoes -19.6868
lfemur -35.6786 -15.4682 -14.3076
ltibia 26.4606
lfoot -14.1739 21.4885
ltoes 13.7757
896
root 4.45476 27.4606 -0.0940154 148.028 91.6411 126.806
lowerback -7.58509 1.18818 -5.09511
upperback -0.994073 2.03281 -0.0484982
thorax 3.04813 0.966402 3.01476
lowerneck -4.17059 1.94252 -0.479949
upperneck 20.0058 2.69531 2.82521
head 6.72167 1.67324 1.19602
rclavicle -1.18277e-014 -7.95139e-016
rhumerus 45.4914 14.5371 -16.1192
rradius 56.1641
rwrist -3.94519
rhand -25.2128 3.89439
rfingers 7.12502
rthumb 1.30601 -26.0814
lclavicle -1.18277e-014 -7.95139e-016
lhumerus 58.1308 -13.8388 14.7969
lradius 43.1177
lwrist -1.50726
lhand -26.2724 30.6154
lfingers 7.12502
lthumb 0.282678 60.595
rfemur -50.2782 3.27693 18.4794
rtibia 51.0867
rfoot 6.83264 15.9598
rtoes -19.6945
lfemur -35.658 -15.3818 -14.3943
ltibia 26.5852
lfoot -14.2218 21.6016
ltoes 13.7666
897
root 4.45128 27.4564 -0.0978126 153.723 91.7677 132.558
lowerback -7.60172 1.00056 -5.10123
upperback -1.30556 1.78265 -0.0827281
thorax 2.75709 0.858673 2.9543
lowerneck -3.54035 2.14466 -0.320392
upperneck 20.0839 3.00535 2.68124
head 6.6361 1.82835 1.13569
rclavicle -2.77305e-014 9.93923e-015
rhumerus 45.6667 15.2932 -16.3115
rradius 56.515
rwrist -3.84811
rhand -25.5001 4.51526
rfingers 7.12502
rthumb 1.0286 -25.462
lclavicle -2.77305e-014 9.93923e-015
lhumerus 56.9249 -14.2535 14.3236
lradius 44.1303
lwrist -1.02941
lhand -26.3383 31.2498
lfingers 7.12502
lthumb 0.218983 61.2294
rfemur -50.2941 3.29113 18.4513
rtibia 51.14
rfoot 6.90147 16.0249
rtoes -19.8197
lfemur -35.6202 -15.2693 -14.5044
ltibia 26.7153
lfoot -14.3171 21.6274
ltoes 13.9627
898
root 4.45129 27.4542 -0.101823 159.711 91.8877 138.78
lowerback -7.37697 1.07186 -5.0711
upperback -1.37353 1.86287 -0.161839
thorax 2.5579 0.906076 2.855
lowerneck -4.03456 2.14349 -0.206176
upperneck 20.6271 3.03281 2.50159
head 6.90317 1.84355 1.07849
rclavicle 3.12092e-014 -1.66979e-014
rhumerus 45.3069 15.4505 -16.3739
rradius 56.9721
rwrist -3.84336
rhand -25.6215 4.70078
rfingers 7.12502
rthumb 0.911319 -25.277
lclavicle 3.12092e-014 -1.66979e-014
lhumerus 56.0806 -14.459 14.2709
lradius 45.523
lwrist -1.18464
lhand -26.5534 31.697
lfingers 7.12502
lthumb 0.0112864 61.6767
rfemur -50.0914 3.32406 18.3845
rtibia 51.181
rfoot 6.72356 15.9815
rtoes -20.474
lfemur -35.3802 -15.2266 -14.6957
ltibia 26.8601
lfoot -14.4267 21.7406
ltoes 14.1375
899
root 4.45021 27.4514 -0.105334 161.876 92.0432 141.181
lowerback -7.40082 0.921631 -5.08874
upperback -1.49546 1.66481 -0.16742
thorax 2.46144 0.813334 2.84027
lowerneck -3.95347 2.39154 0.000105872
upperneck 21.0179 3.35885 2.57269
head 7.01371 2.03016 1.09543
rclavicle -5.96354e-016 -9.54166e-015
rhumerus 45.3544 15.9515 -16.6844
rradius 57.4849
rwrist -3.79849
rhand -25.306 4.40369
rfingers 7.12502
rthumb 1.21605 -25.5726
lclavicle -5.96354e-016 -9.54166e-015
lhumerus 54.8222 -14.7032 14.1527
lradius 46.6074
lwrist -0.996113
lhand -26.1336 31.3135
lfingers 7.12502
lthumb 0.416674 61.2929
rfemur -49.8762 3.40185 18.4135
rtibia 51.2022
rfoot 6.54741 16.0807
rtoes -21.1121
lfemur -35.1525 -15.1391 -14.7798
ltibia 26.984
lfoot -14.517 21.8063
ltoes 14.281
900
root 4.44614 27.4497 -0.109616 162.214 92.1523 141.673
lowerback -7.47753 0.982867 -4.9787
upperback -1.40714 1.74161 -0.125053
thorax 2.59114 0.846301 2.83274
lowerneck -4.08331 2.43003 -0.0860638
upperneck 20.9459 3.42185 2.52377
head 7.01171 2.0467 1.09931
rclavicle 1.63003e-014 -2.46493e-014
rhumerus 45.0355 15.903 -16.5478
rradius 57.9318
rwrist -3.66858
rhand -24.7549 4.1761
rfingers 7.12502
rthumb 1.74828 -25.7965
lclavicle 1.63003e-014 -2.46493e-014
lhumerus 54.4194 -14.6482 14.3192
lradius 47.2984
lwrist -0.962493
lhand -25.6598 30.6479
lfingers 7.12502
lthumb 0.874287 60.6259
rfemur -49.7682 3.40504 18.4734
rtibia 51.2159
rfoot 6.61685 16.2161
rtoes -21.6864
lfemur -35.0239 -15.0505 -14.8165
ltibia 27.0737
lfoot -14.6084 21.7543
ltoes 14.4671
